# xmcd
#
# Track frame offsets: 
#        150
#        14328
#        28054
#        40359
#        58399
#        77358
#        90641
#        104690
#        123907
#        134719
#        149030
#        161870
#        172910
#        185368
#        201035
#        215143
#        227117
#        243458
#        259190
#        279314
#
# Disc length: 3922 seconds
#
# Revision: 0
# Processed by: cddbd v1.5.2PL0 Copyright (c) Steve Scherf et al.
# Submitted via: ExactAudioCopy v1.0b1
#
DISCID=2f0f5014
DTITLE=Dolly Parton - Blue Smoke (The Best of) CD2
DYEAR=2014
DGENRE=Country
TTITLE0=I Will Always Love You 
TTITLE1=9 to 5
TTITLE2=Jolene
TTITLE3=Together You and I
TTITLE4=Islands in the Stream
TTITLE5=Here You Come Again
TTITLE6=Coat of Many Colors
TTITLE7=Little Sparrow
TTITLE8=Love Is Like a Butterfly
TTITLE9=My Tennessee Mountain Home
TTITLE10=In the Ghetto
TTITLE11=Silver Threads and Golden Needles
TTITLE12=Sacred Memories
TTITLE13=Applejack
TTITLE14=Two Doors Down
TTITLE15=Baby I'm Burnin'
TTITLE16=Better Get to Livin'
TTITLE17=The Sacrifice
TTITLE18=From Here To The Moon and Back
TTITLE19=Better Day
EXTD=
EXTT0=
EXTT1=
EXTT2=
EXTT3=
EXTT4=
EXTT5=
EXTT6=
EXTT7=
EXTT8=
EXTT9=
EXTT10=
EXTT11=
EXTT12=
EXTT13=
EXTT14=
EXTT15=
EXTT16=
EXTT17=
EXTT18=
EXTT19=
PLAYORDER=
